::General::

Complete Name: Zombieland 2009 BRRIP mHD Dual Audio [Hindi-English] HD555
Format: MP4
File size: 571 MiB
Duration: 1h 26mn
Overall Bitrate: 918 Kbps
Language: Hindi - ENGLISH
Sub Title: NONE

::IMDB INFO::

IMDB Link: www.imdb.com/title/tt1156398/
IMDB Rating: 7.7/10
Genre: Action | Comedy | Horror

::Plot::

A shy student trying to reach his family in Ohio, and a gun-toting tough guy trying to find the Last Twinkie and a pair of sisters trying to get to an amusement park join forces to travel across a zombie-filled America.

:: All Screens Shots::


--------------------










::Video::

ID: 1
Format : AVC
Format/Inf : Advanced Video Codec
Format profile: Baseline@L3.0
Format settings, CABAC: No
Format settings, ReFrames: 2 frames
Codec ID: avc1
Codec ID/Info: Advanced Video Coding
Duration: 1h 26mn
Bit rate mode: Variable
Bit rate: 626 Kbps
Width: 720 pixels
Height: 304 pixels
Display aspect ratio: 2.40:1
Original display aspect ratio: 2.40:1
Frame rate mode: Variable
Frame rate: 23.976 fps
Minimum frame rate: 23.810 fps
Maximum frame rate: 24.390 fps
Color space: YUV
Chroma subsampling: 4:2:0
Bit depth: 8 bits
Scan type: Progressive
Bits/(Pixel*Frame): 0.119
Stream size: 389 MiB (68%)
Writing library: x264 core 120

::Audio::

Audio #1

ID: 2
Format: AAC
Format/Info: Advanced Audio Codec
Format profile: LC
Codec ID: 40
Duration: 1h 26mn
Bit rate mode: Variable
Bit rate: 160 Kbps
Maximum bit rate: 197 Kbps
Channel(s): 2 channels
Channel positions: Front: L R
Sampling rate: 48.0 KHz
Compression mode: Lossy
Stream size: 99.5 MiB (17%)


Audio #2

ID: 3
Format: AC-3
Format/Info: Audio Coding 3
Mode extension: CM (complete main)
Format settings, Endianness: Big
Codec ID: ac-3
Duration: 1h 26mn
Bit rate mode: Constant
Bit rate: 128 Kbps
Channel(s): 2 channels
Channel positions: Front: L R
Sampling rate: 48.0 KHz
Bit depth: 16 bits
Compression mode: Lossy
Stream size: 79.6 MiB (14%)
